<?xml version="1.0" standalone="no"?>
<!DOCTYPE svg PUBLIC "-//W3C//DTD SVG 20010904//EN"
 "http://www.w3.org/TR/2001/REC-SVG-20010904/DTD/svg10.dtd">
<svg version="1.0" xmlns="http://www.w3.org/2000/svg"
 width="128.000000pt" height="128.000000pt" viewBox="0 0 128.000000 128.000000"
 preserveAspectRatio="xMidYMid meet">

<g transform="translate(0.000000,128.000000) scale(0.100000,-0.100000)"
fill="#000000" stroke="none">
<path d="M837 1233 c-94 -318 -149 -525 -140 -534 9 -9 500 114 561 141 18 8
21 15 16 37 -8 35 -29 58 -43 49 -6 -4 -8 -18 -5 -31 5 -21 1 -25 -28 -33 -33
-8 -33 -8 -61 50 -41 84 -134 181 -213 219 -63 31 -65 33 -58 63 8 40 7 40 48
26 80 -26 180 -107 256 -209 22 -29 27 -31 38 -18 10 12 5 25 -33 75 -69 92
-201 184 -297 207 -25 6 -28 4 -41 -42z m93 -151 c63 -36 133 -112 166 -178
22 -46 25 -57 13 -64 -9 -6 -21 1 -40 23 -21 25 -34 31 -64 31 -45 0 -85 -39
-85 -82 0 -26 -5 -28 -87 -50 -47 -12 -88 -20 -91 -18 -2 3 2 28 9 55 11 44
17 52 47 62 45 15 69 67 51 111 -6 15 -17 32 -24 36 -9 5 -9 19 3 60 17 60 21
60 102 14z"/>
<path d="M893 1021 c4 -17 13 -46 22 -67 12 -30 18 -34 29 -25 24 20 -10 121
-41 121 -12 0 -14 -7 -10 -29z"/>
<path d="M510 1179 c-133 -20 -254 -83 -346 -182 -275 -294 -189 -757 174
-937 164 -81 359 -77 533 11 94 47 206 162 253 262 52 108 72 224 57 332 -6
43 -14 82 -19 87 -4 4 -126 -24 -271 -62 -146 -38 -266 -68 -267 -67 -2 1 29
121 67 266 39 145 66 268 62 272 -9 9 -134 29 -168 28 -11 -1 -45 -5 -75 -10z
m198 -44 c2 -2 0 -18 -3 -37 l-7 -35 -72 5 c-132 8 -257 -35 -353 -122 -49
-44 -69 -86 -41 -86 6 0 34 22 63 49 85 81 185 121 300 121 84 0 90 -6 75 -69
-11 -47 -14 -51 -41 -51 -40 0 -79 -40 -79 -80 0 -22 10 -41 31 -62 l30 -31
-19 -73 c-13 -48 -17 -75 -10 -82 7 -7 49 0 124 20 l115 31 22 -22 c43 -40
109 -23 133 35 15 36 38 45 48 18 11 -28 6 -127 -8 -180 -33 -124 -124 -230
-243 -287 -58 -27 -82 -32 -163 -35 -112 -5 -181 15 -269 76 -152 104 -220
315 -160 494 32 96 8 125 -32 36 -31 -72 -38 -220 -14 -304 32 -112 104 -208
207 -274 82 -53 164 -73 280 -68 83 3 103 8 171 41 179 84 283 254 276 450 -3
79 -3 81 21 88 47 13 48 11 55 -63 12 -136 -43 -303 -135 -410 -52 -60 -157
-130 -240 -159 -54 -19 -85 -23 -180 -23 -101 0 -124 4 -185 27 -181 71 -306
212 -350 398 -73 313 144 624 470 672 29 5 177 -2 183 -8z"/>
<path d="M422 948 c-9 -9 -5 -23 16 -60 26 -46 44 -59 57 -39 4 8 -50 111 -59
111 -1 0 -7 -5 -14 -12z"/>
<path d="M266 818 c-58 -50 -22 -148 55 -148 42 0 79 39 79 83 0 45 -26 76
-71 83 -28 5 -41 1 -63 -18z"/>
<path d="M478 665 c-37 -34 -50 -65 -27 -65 19 0 89 65 89 83 0 26 -21 20 -62
-18z"/>
<path d="M243 563 c-7 -2 -13 -11 -13 -19 0 -24 124 -15 128 9 3 14 -4 17 -50
16 -29 0 -59 -3 -65 -6z"/>
<path d="M693 533 c-7 -2 -13 -11 -13 -19 0 -24 124 -15 128 9 3 14 -4 17 -50
16 -29 0 -59 -3 -65 -6z"/>
<path d="M910 495 c-29 -42 -32 -65 -9 -65 12 0 69 79 69 97 0 27 -30 11 -60
-32z"/>
<path d="M510 486 c0 -7 11 -21 25 -30 14 -9 36 -23 49 -31 20 -13 25 -14 35
-1 10 12 4 20 -33 45 -48 33 -76 39 -76 17z"/>
<path d="M323 450 c-48 -19 -58 -95 -18 -135 51 -52 135 -17 135 56 0 68 -54
104 -117 79z"/>
<path d="M726 389 c-32 -25 -36 -84 -7 -120 27 -33 95 -33 122 0 64 79 -35
183 -115 120z"/>
<path d="M536 331 c-11 -17 24 -121 40 -121 17 0 17 41 0 89 -13 36 -30 49
-40 32z"/>
</g>
</svg>
